<?xml version="1.0" encoding="utf-8"?>
<!-- Generator: Adobe Illustrator 22.0.1, SVG Export Plug-In . SVG Version: 6.00 Build 0)  -->
<svg version="1.1" id="Capa_1" xmlns="http://www.w3.org/2000/svg" xmlns:xlink="http://www.w3.org/1999/xlink" x="0px" y="0px"
	 viewBox="0 0 500 400" style="enable-background:new 0 0 500 400;" xml:space="preserve">
<style type="text/css">
	.st0{fill:#636466;}
	.st1{fill:#FFFFFF;}
	.st2{fill:#666666;}
	.st3{fill:#EF3F4E;}
	.st4{fill:#626365;}
	.st5{fill:#ED3241;}
	.st6{fill:#EE3342;}
</style>
<g>
	<g>
		<path class="st0" d="M389.3,162.2c-0.5-1.3-1.9-5.3,0.3-7.4c1-1,4.2-2.4,7.4-3.4c-0.1,0-0.1,0-0.2,0c-1.5-0.5-4.9,0-5.6-2.8
			c-0.4-1.5,0.9-4.8,0.7-6.3c-0.7-4.9-3.8-7.9-6.3-8.5c-2.2-0.5-7,0.1-7.8,2.1c-1.3,3.5,3.5,2.1,3.5,16.2c0,3.2-4.1,8.1-4.9,11.3
			c-0.6,2.4,0.1,8.3-0.7,10.6c-1.5,4.1-14.1,20.4-16.9,21.1c-1.4,0.4-4.6,0.4-6.5-0.9c-1.4-0.9-5.2-3.1-7.6-4.4
			c-7.7-12.5-17.7-24-22.7-29.3c-3.6-3.9-21.7-23-28.3-21.9c-1.7,0.3-2.8,1.6-2.8,3.5l0,0.3c0,0.4,2.6,29.9,2.8,53.4
			c-0.3,0.8-0.5,1.5-0.6,2c-0.7,3.3-3,10.7-5.8,14c-3.8,4.3-6.3,7.2-6.1,11.3c0.3,4.1,5.1,14.6,4,18.8c-1.1,4.2-7.4,11.4-7.2,14.1
			c0.2,2.5,4.1,4.4,6.1,4c0.2,1.9,0.7,3.5,1.7,4.3c0.7,0.7,1.7,1.1,2.7,1.1c0.6,0,1.2-0.1,1.9-0.3c3.3-1.2,7-4.2,11.4-7.6
			c6.4-5.1,13.6-10.8,19.4-10.6c4.4,0.1,8.9,4.9,13.3,9.5c5,5.3,10.7,17.2,16.3,16.7c1,0.2,2.6,0,4.1-1.7c5.3-5.8,6.6-33.1,0.3-57
			c0.8-2.8,1.2-7.6,1.2-9.2c0-1.4,2.6-5,3.8-6.6c4.4-5.9,14.1-15.5,19-21.1c1.4-1.6,6.4-1.8,9.7-1.6c-0.5-1.9-1-5.2,0.7-6.9
			c0.2-0.2,0.4-0.3,0.7-0.4C389.3,167.1,387.7,164.2,389.3,162.2z M290.2,215.6c1.5-0.9,2.6-2.7,3.1-4.1c-0.3,4.3-0.8,7.7-1.5,10
			c-0.6,2-2.1,6.4-3.6,11.8c-1.3-3.5-2.8-7.8-2.9-9.2C285.1,221.4,288.5,216.6,290.2,215.6z M351.2,268.4l-0.7,0
			c-3.5,0.5-8.7-10.9-12.8-15.3c-5-5.3-10.2-10.8-16.5-10.9c-7.5-0.2-15.4,6.1-22.4,11.6c-3.8,3-7.4,5.9-10,6.9
			c-1.5-3.4,1.9-20.9,7.5-37.7c1.2-3.7,1.8-10.2,2-18c4.4,1.2,18.2,4.8,23.1,3.4c5.3-1.5,15.3-12.2,19.2-16.4
			c2.8,4.6,5.2,9.1,6.9,13.4C358,232.8,354.5,266.2,351.2,268.4z"/>
		<path class="st0" d="M390.4,161.3c2.6-1.2,9.6-1.8,13.3-1.6c0.8-0.5,2.2-1,2.2-3.4c0-3.4-2.8-4.3-4.1-4.7
			c-3.4,0.4-10.1,2.9-11.3,4.1C389.2,157,389.8,159.7,390.4,161.3z"/>
		<path class="st0" d="M390.5,169.8c-1.3,1.3-0.8,4.3-0.2,6.1c0.3,0,0.6,0.1,0.8,0.1c2,0.4,5.7,1.9,7.8,2.1c1.1,0.1,3.5-0.6,4.2-1.4
			c1.9-2.3,1.6-3.7,1.3-4.8C401,170.2,391.5,168.9,390.5,169.8z"/>
	</g>
	<path class="st3" d="M97.1,304c0-7.3-0.8-10.5-4.8-10.5c-4.7,0-5.1,4.5-5.1,17.6c0,14.9,0.5,18.7,5.4,18.7c4.3,0,4.8-5,4.9-12.8
		h11.4v1.8c0,10.8-3,18.9-17.6,18.9c-15.1,0-16.3-11.3-16.3-26.4c0-12.8,0.7-25.7,17.4-25.7c10.4,0,16,4.5,16,16.3v2.1H97.1z"/>
	<path class="st3" d="M130.2,337.6c-15.5,0-17.6-10.1-17.6-26s2.1-26,17.6-26c16.7,0,17.6,12.1,17.6,26
		C147.8,325.5,146.9,337.6,130.2,337.6z M130.2,329.8c4.8,0,5.5-4.4,5.5-18.2c0-13.7-0.7-18.2-5.5-18.2c-4.6,0-5.3,4.4-5.3,18.2
		C124.8,325.4,125.5,329.8,130.2,329.8z"/>
	<path class="st3" d="M154,286.6h19.8c10,0,13.5,6.2,13.5,13c0,7.3-2.9,10.9-8.4,12.2v0.1c7.5,1.1,7.9,5.7,8.1,12.5
		c0.2,9.9,0.6,10.9,2.2,11.6v0.6h-12.7c-0.9-1.7-1.3-4.5-1.3-10.2c0-8.7-1.2-10.5-4.9-10.5h-4.5v20.7H154V286.6z M165.8,307.7h3.6
		c4.8,0,6-3.6,6-6.5c0-3.8-1.4-6.3-6.1-6.3h-3.6V307.7z"/>
	<path class="st3" d="M226.5,320.1c0,9.8-2.8,17.5-16.5,17.5c-13.7,0-16.5-7.7-16.5-17.5v-33.5h11.8v36.9c0,3.9,1.5,6.2,4.7,6.2
		c3.2,0,4.7-2.3,4.7-6.2v-36.9h11.8V320.1z"/>
	<path class="st3" d="M233.2,286.6h13.5l9.7,32.5h0.1v-32.5h10.9v50h-13.3l-10.3-34.5h-0.1v34.5h-10.5V286.6z M261.7,273.8
		c-0.3,4.1-2,9.5-7,9.5c-3.4,0-6.4-2.1-8.3-2.1c-1.3,0-1.9,1.3-2,2.1H239c0.2-2.5,0.8-4.8,1.9-6.6c1.1-1.8,2.7-2.9,4.7-2.9
		c1.9,0,3.4,0.5,4.8,1.1c1.4,0.5,2.5,1.1,3.6,1.1c1.8,0,2-1.1,2.2-2.1H261.7z"/>
	<path class="st0" d="M423.9,271.1h-74.4c-7.3-2.5-15.6-5-19.9-5.7c-15.4-2.1-52.2,1.4-62-7c-9.8-8.4-29.3-9.8-29.3-9.8v-4.9h-16.7
		v-13.6l2.1,0.3v-4.2l-2.1-0.4v-23.3l2.1,0.2V198l-2.1-0.2v-29.5l2.1,0.2v-4.9l-2.1-0.2v-20.6l2.1,0.6v-4.2l-2.1-0.7v-11.2h3.5
		l-12.9-17.8L209,92.5l0.9-0.1l-3-2.7l-5.5-3.5l-0.1-7l1.4-1.4l-4.2-1v-5.7l1.4-0.9c0,0-2.1-7.7-9.8-7.7c-4.1,0-6.4,2.1-7.7,4V43.7
		l-2.8,2.8v27.9l-2.1,4.2v7.6l-0.7,0l-4.9,8.4h0.7c0,0,0.7,4.2,0,9.1c-0.7,4.9-16,10.5-16,10.5l5.6,2.8v2.1v6.2l-2.1,0.7v4.9
		l2.1-0.6v22.2l-2.1,0.7v5.6l2.1-0.8v23l-2.1,0.8v4.9l2.1-0.8V211l-2.1,0.7v4.9l2.1-0.7v22.3h-4.9v0.7h-4.2v2.8h-17.4v2.2l-17,4.3
		c-1.3,0.1-2.4,0.2-3.2,0.4c-13.1,2.1-31.4,22.4-31.4,22.4h-7.1c-0.6,0-1.1,0.5-1.1,1.1v7.3c0,0.6,0.5,1.1,1.1,1.1h158.1
		c0.4-2.5,1.2-4.6,2.2-6.3c2-3.1,4.9-4.8,8.2-4.8c2.7,0,4.8,0.7,6.2,1.3c0.2,0.1,0.4,0.1,0.6,0.2l0.3-1.5h3.3h5.6h4.4l-0.3,4.4
		c-0.2,2.6-0.7,4.8-1.5,6.7h159.6c0.6,0,1.1-0.5,1.1-1.1v-7.3C425,271.7,424.5,271.1,423.9,271.1z M181.8,225.1h-4.9V216h4.9V225.1z
		 M181.8,194.9h-4.9v-9.1h4.9V194.9z M181.8,166h-4.9v-9.1h4.9V166z M181.8,137.1h-4.9v-9.1h4.9V137.1z M195.6,223.7h-4.9v-9.1h4.9
		V223.7z M195.6,193.5h-4.9v-9.1h4.9V193.5z M195.6,164.6h-4.9v-9.1h4.9V164.6z M195.6,135.8h-4.9v-9.1h4.9V135.8z M214.6,219.8
		h-1.4v-8.9h1.4V219.8z M214.6,189.6h-1.4v-8.9h1.4V189.6z M214.6,158h-1.4V149h1.4V158z M214.6,133.6h-1.4v-6.9h1.4V133.6z
		 M218,220.9h-0.7v-8.2h0.7V220.9z M218,190.6h-0.7v-8.2h0.7V190.6z M218,159h-0.7v-8.2h0.7V159z M218,134.6h-0.7v-6.2h0.7V134.6z"
		/>
	<path class="st3" d="M284,286.6h14.7l12.5,50H299l-1.8-9.5h-12l-1.8,9.5h-12.2L284,286.6z M291.2,295.7H291l-4.1,22.3h8.6
		L291.2,295.7z"/>
	<path class="st4" d="M331,286.6h11.8v35c0,9.3-3.7,16-15.3,16c-10.6,0-14.9-5-14.9-13.8v-3.1h10.9v2.2c0,3.4,0.1,6.9,3.9,6.9
		c3.4,0,3.7-3.5,3.7-8.2V286.6z"/>
	<path class="st4" d="M382.3,320.1c0,9.8-2.8,17.5-16.5,17.5c-13.7,0-16.5-7.7-16.5-17.5v-33.5h11.8v36.9c0,3.9,1.5,6.2,4.7,6.2
		s4.7-2.3,4.7-6.2v-36.9h11.8V320.1z"/>
	<path class="st4" d="M410.2,301.8c0-3.2-0.4-8.3-4.7-8.3c-4.8,0-5.4,4.9-5.4,18.2c0,13.7,0.7,18.1,5.4,18.1c4,0,5.4-3.6,5.4-10.5
		v-1.6h-5.5v-7.9h16.5v26.8h-8.1l-0.3-4.8h-0.1c-1.8,4.5-6.2,5.7-10.8,5.7c-12.5,0-14.6-9.3-14.6-25c0-16.4,1.1-27.1,17.8-27.1
		c15.2,0,15.8,10.5,15.8,16.2H410.2z"/>
	<g>
		<path class="st5" d="M89.6,351.9c0,2.2-0.5,4.4-4.2,4.4c-2.7,0-3.8-1.8-3.8-4.1v-0.7h2.2v0.7c0,1.4,0.4,2.3,1.8,2.3
			c1.4,0,1.8-0.9,1.8-2.5v-8.8h2.2V351.9z"/>
		<path class="st5" d="M108.3,343.3h2.4l4.9,12.8h-2.4l-1.2-3.4h-5.1l-1.2,3.4h-2.3L108.3,343.3z M107.5,350.9h3.9l-1.9-5.5h-0.1
			L107.5,350.9z"/>
		<path class="st5" d="M126.7,343.3h2.3l3.2,10.1h0l3.3-10.1h2.3l-4.4,12.8H131L126.7,343.3z"/>
		<path class="st5" d="M154,343.3h2.4l4.9,12.8h-2.4l-1.2-3.4h-5.1l-1.2,3.4h-2.3L154,343.3z M153.3,350.9h3.9l-1.9-5.5h-0.1
			L153.3,350.9z"/>
		<path class="st5" d="M192.4,343.3h2.2v7.4c0,1.7,0.1,3.7,3,3.7c2.9,0,3-2,3-3.7v-7.4h2.2v8.2c0,3.3-2.1,4.9-5.2,4.9
			s-5.2-1.6-5.2-4.9V343.3z"/>
		<path class="st5" d="M219.4,351.8c0,2,1.4,2.7,3.2,2.7c2,0,2.7-1,2.7-1.9c0-1-0.5-1.4-1.1-1.6c-0.9-0.3-2.1-0.6-3.8-1.1
			c-2.2-0.6-2.8-1.9-2.8-3.2c0-2.6,2.4-3.8,4.7-3.8c2.7,0,4.9,1.4,4.9,4.1H225c-0.1-1.6-1.2-2.3-2.8-2.3c-1,0-2.3,0.4-2.3,1.7
			c0,0.9,0.6,1.4,1.5,1.6c0.2,0.1,3,0.8,3.7,1c1.7,0.5,2.5,1.9,2.5,3.3c0,2.9-2.5,4-5.1,4c-2.9,0-5.3-1.4-5.3-4.6H219.4z"/>
		<path class="st5" d="M242,343.3h9.2v1.9h-7v3.3h6.4v1.8h-6.4v3.7h7.1v1.9H242V343.3z"/>
		<path class="st5" d="M265.8,343.3h6.1c2.8,0,4.2,1.3,4.2,3.4c0,2.4-1.7,3.1-2.1,3.2v0c0.8,0.1,1.9,0.7,1.9,2.7
			c0,1.5,0.2,2.8,0.7,3.4h-2.4c-0.3-0.6-0.3-1.3-0.3-1.9c0-2.3-0.5-3.4-2.5-3.4H268v5.3h-2.2V343.3z M268,349.1h3.7
			c1.4,0,2.2-0.7,2.2-2c0-1.6-1.1-1.9-2.2-1.9H268V349.1z"/>
		<path class="st5" d="M319.5,356H318l-0.3-1.5c-1.2,1.4-2.3,1.8-3.8,1.8c-3.8,0-6.1-3-6.1-6.7c0-3.6,2.3-6.7,6.1-6.7
			c2.8,0,5.1,1.5,5.5,4.4h-2.2c-0.2-1.7-1.7-2.5-3.3-2.5c-2.7,0-3.9,2.4-3.9,4.9c0,2.4,1.1,4.9,3.9,4.9c2.3,0,3.5-1.3,3.6-3.5H314
			v-1.7h5.4V356z"/>
		<path class="st5" d="M334.4,343.3h6.1c2.8,0,4.2,1.3,4.2,3.4c0,2.4-1.7,3.1-2.1,3.2v0c0.8,0.1,1.9,0.7,1.9,2.7
			c0,1.5,0.2,2.8,0.7,3.4h-2.4c-0.3-0.6-0.3-1.3-0.3-1.9c0-2.3-0.5-3.4-2.5-3.4h-3.3v5.3h-2.2V343.3z M336.6,349.1h3.7
			c1.4,0,2.2-0.7,2.2-2c0-1.6-1.1-1.9-2.2-1.9h-3.6V349.1z"/>
		<path class="st5" d="M371,349.6c0,3.6-2.3,6.7-6.1,6.7c-3.8,0-6.1-3-6.1-6.7c0-3.6,2.3-6.7,6.1-6.7C368.7,342.9,371,346,371,349.6
			z M361,349.6c0,2.4,1.1,4.9,3.9,4.9c2.7,0,3.9-2.4,3.9-4.9c0-2.4-1.1-4.9-3.9-4.9C362.2,344.8,361,347.2,361,349.6z"/>
		<path class="st5" d="M385.4,343.3h2.2v7.4c0,1.7,0.1,3.7,3,3.7c2.9,0,3-2,3-3.7v-7.4h2.2v8.2c0,3.3-2.1,4.9-5.2,4.9
			s-5.2-1.6-5.2-4.9V343.3z"/>
		<path class="st5" d="M411,343.3h5.6c3.6,0,4.3,2.4,4.3,3.9c0,1.6-0.7,3.9-4.3,3.9h-3.4v4.9H411V343.3z M413.2,349.3h3.3
			c1,0,2.2-0.5,2.2-2.1c0-1.7-1-2.1-2.2-2.1h-3.3V349.3z"/>
	</g>
	<g>
		
			<ellipse transform="matrix(0.8979 -0.4402 0.4402 0.8979 -55.3776 161.1267)" class="st6" cx="319.6" cy="199.9" rx="16.9" ry="11.5"/>
		
			<ellipse transform="matrix(0.8979 -0.4402 0.4402 0.8979 -54.139 158.4559)" class="st1" cx="314.5" cy="195.9" rx="5.1" ry="3.1"/>
	</g>
	<g>
		<path class="st0" d="M407.3,166.1c0-3.8-3.3-3.8-4.1-5.1c-4.3-0.2-11.8,0.8-12.7,1.7c-1.6,1.6,0.7,4.8,1.2,5.4
			c3.5-0.2,9.8,1.1,12.8,2.3C405.3,169.3,407.3,170.1,407.3,166.1z"/>
		<path class="st0" d="M407.3,166.1c0-3.8-3.3-3.8-4.1-5.1c-4.3-0.2-11.8,0.8-12.7,1.7c-1.6,1.6,0.7,4.8,1.2,5.4
			c3.5-0.2,9.8,1.1,12.8,2.3C405.3,169.3,407.3,170.1,407.3,166.1z"/>
		<path class="st0" d="M407.3,166.1c0-3.8-3.3-3.8-4.1-5.1c-4.3-0.2-11.8,0.8-12.7,1.7c-1.6,1.6,0.7,4.8,1.2,5.4
			c3.5-0.2,9.8,1.1,12.8,2.3C405.3,169.3,407.3,170.1,407.3,166.1z"/>
		<path class="st0" d="M407.3,166.1c0-3.8-3.3-3.8-4.1-5.1c-4.3-0.2-11.8,0.8-12.7,1.7c-1.6,1.6,0.7,4.8,1.2,5.4
			c3.5-0.2,9.8,1.1,12.8,2.3C405.3,169.3,407.3,170.1,407.3,166.1z"/>
	</g>
</g>
</svg>
